<svg width="55" height="55" viewBox="0 0 55 55" fill="none" xmlns="http://www.w3.org/2000/svg">
<circle cx="27.5" cy="27.5" r="27.5" fill="#EBFF0B"/>
<g clip-path="url(#clip0_19:119)">
<mask id="mask0_19:119" style="mask-type:alpha" maskUnits="userSpaceOnUse" x="5" y="16" width="19" height="18">
<path d="M5.84961 16.5H23.3807V33.4117H5.84961V16.5Z" fill="white"/>
</mask>
<g mask="url(#mask0_19:119)">
<path fill-rule="evenodd" clip-rule="evenodd" d="M10.9049 26.6467C8.11118 26.6385 5.84961 24.3703 5.84961 21.5732C5.84961 18.7714 8.11938 16.4999 10.921 16.4999H10.9285H14.7595C14.3109 16.9239 14.0306 17.5246 14.0306 18.191C14.0306 18.8578 14.3109 19.4582 14.7595 19.8828H10.9203C9.98689 19.8828 9.23054 20.6392 9.23054 21.5732C9.23054 22.5074 9.98689 23.265 10.9203 23.265H18.2929L18.3086 23.2642C21.1099 23.2642 23.3807 25.5356 23.3807 28.3381C23.3807 31.1396 21.1099 33.4117 18.3086 33.4117L18.3007 33.411H7.53972C6.60668 33.411 5.84961 32.6542 5.84961 31.7203C5.84961 30.7885 6.60204 30.0335 7.53151 30.0292H18.3086C19.2419 30.0292 19.9994 29.2717 19.9994 28.3381C19.9994 27.4039 19.2419 26.6467 18.3086 26.6467H10.9049Z" fill="white"/>
</g>
<mask id="mask1_19:119" style="mask-type:alpha" maskUnits="userSpaceOnUse" x="14" y="16" width="36" height="18">
<path d="M14.865 16.5H49.0499V33.4117H14.865V16.5Z" fill="white"/>
</mask>
<g mask="url(#mask1_19:119)">
<path fill-rule="evenodd" clip-rule="evenodd" d="M27.4499 16.4999C32.1177 16.4999 35.9019 20.2859 35.9019 24.9559C35.9019 25.0178 35.9016 25.0792 35.9001 25.1406L35.9019 25.1434C35.9019 27.842 38.0885 30.0292 40.7848 30.0292C43.4829 30.0292 45.6696 27.842 45.6696 25.1434V18.4727V18.1906C45.6696 17.257 46.4259 16.4999 47.3593 16.4999C48.2931 16.4999 49.0501 17.257 49.0501 18.1906V25.1434C49.0501 29.7099 45.3497 33.4117 40.7848 33.4117C38.076 33.4117 35.671 32.1074 34.164 30.0917C32.6192 32.1099 30.1866 33.4117 27.4499 33.4117H21.3731C22.6195 32.6566 23.5643 31.4552 23.988 30.0292H27.4499C30.2295 30.0292 32.4864 27.792 32.5207 25.0188C32.5203 24.9403 32.5181 24.8549 32.5174 24.7649C32.4168 22.0509 30.1866 19.8824 27.4499 19.8824H20.6881H16.5555C15.6217 19.8824 14.865 19.1252 14.865 18.1906C14.865 17.257 15.6217 16.4999 16.5555 16.4999H27.4499Z" fill="white"/>
</g>
<mask id="mask2_19:119" style="mask-type:alpha" maskUnits="userSpaceOnUse" x="32" y="16" width="4" height="6">
<path d="M32.7214 16.5H35.9018V21.2746H32.7214V16.5Z" fill="white"/>
</mask>
<g mask="url(#mask2_19:119)">
<path fill-rule="evenodd" clip-rule="evenodd" d="M32.7214 17.392C33.0063 16.8609 33.5667 16.4999 34.2113 16.4999C35.1451 16.4999 35.9018 17.257 35.9018 18.1909V21.2745C35.2179 19.7052 34.1099 18.362 32.7214 17.392Z" fill="white"/>
</g>
<mask id="mask3_19:119" style="mask-type:alpha" maskUnits="userSpaceOnUse" x="46" y="41" width="3" height="4">
<path d="M46.0034 41.4291H48.3771V44.0096H46.0034V41.4291Z" fill="white"/>
</mask>
<g mask="url(#mask3_19:119)">
</g>
</g>
<defs>
<clipPath id="clip0_19:119">
<rect width="44" height="28.05" fill="white" transform="translate(5.5 16.5)"/>
</clipPath>
</defs>
</svg>
