<svg width="45" height="29" viewBox="0 0 45 29" fill="none" xmlns="http://www.w3.org/2000/svg">
<g clip-path="url(#clip0_171:1143)">
<mask id="mask0_171:1143" style="mask-type:alpha" maskUnits="userSpaceOnUse" x="0" y="0" width="19" height="18">
<path d="M0.849609 0.5H18.3807V17.4117H0.849609V0.5Z" fill="white"/>
</mask>
<g mask="url(#mask0_171:1143)">
<path fill-rule="evenodd" clip-rule="evenodd" d="M5.90494 10.6467C3.11118 10.6385 0.849609 8.37029 0.849609 5.57315C0.849609 2.77137 3.11938 0.499939 5.921 0.499939H5.9285H9.7595C9.31087 0.923867 9.03064 1.52458 9.03064 2.19101C9.03064 2.8578 9.31087 3.45815 9.7595 3.8828H5.92029C4.98689 3.8828 4.23054 4.63922 4.23054 5.57315C4.23054 6.50744 4.98689 7.26495 5.92029 7.26495H13.2929L13.3086 7.26424C16.1099 7.26424 18.3807 9.53562 18.3807 12.3382C18.3807 15.1396 16.1099 17.4117 13.3086 17.4117L13.3007 17.411H2.53972C1.60668 17.411 0.849609 16.6542 0.849609 15.7203C0.849609 14.7885 1.60204 14.0335 2.5315 14.0292H13.3086C14.2419 14.0292 14.9994 13.2717 14.9994 12.3382C14.9994 11.4039 14.2419 10.6467 13.3086 10.6467H5.90494Z" fill="white"/>
</g>
<mask id="mask1_171:1143" style="mask-type:alpha" maskUnits="userSpaceOnUse" x="9" y="0" width="36" height="18">
<path d="M9.86499 0.5H44.0499V17.4117H9.86499V0.5Z" fill="white"/>
</mask>
<g mask="url(#mask1_171:1143)">
<path fill-rule="evenodd" clip-rule="evenodd" d="M22.4499 0.499878C27.1177 0.499878 30.9019 4.28595 30.9019 8.95593C30.9019 9.01775 30.9016 9.07919 30.9001 9.14057L30.9019 9.14343C30.9019 11.842 33.0885 14.0292 35.7848 14.0292C38.4829 14.0292 40.6696 11.842 40.6696 9.14343V2.47274V2.19059C40.6696 1.25702 41.4259 0.499878 42.3593 0.499878C43.2931 0.499878 44.0501 1.25702 44.0501 2.19059V9.14343C44.0501 13.7099 40.3497 17.4117 35.7848 17.4117C33.076 17.4117 30.671 16.1074 29.164 14.0917C27.6192 16.1099 25.1866 17.4117 22.4499 17.4117H16.3731C17.6195 16.6566 18.5643 15.4552 18.988 14.0292H22.4499C25.2295 14.0292 27.4864 11.792 27.5207 9.0188C27.5203 8.94026 27.5181 8.8549 27.5174 8.76486C27.4168 6.05094 25.1866 3.88238 22.4499 3.88238H15.6881H11.5555C10.6217 3.88238 9.86499 3.12523 9.86499 2.19059C9.86499 1.25702 10.6217 0.499878 11.5555 0.499878H22.4499Z" fill="white"/>
</g>
<mask id="mask2_171:1143" style="mask-type:alpha" maskUnits="userSpaceOnUse" x="27" y="0" width="4" height="6">
<path d="M27.7213 0.5H30.9016V5.27457H27.7213V0.5Z" fill="white"/>
</mask>
<g mask="url(#mask2_171:1143)">
<path fill-rule="evenodd" clip-rule="evenodd" d="M27.7213 1.39202C28.0062 0.860949 28.5666 0.499878 29.2112 0.499878C30.1449 0.499878 30.9016 1.25702 30.9016 2.19095V5.27452C30.2178 3.70524 29.1098 2.36202 27.7213 1.39202Z" fill="white"/>
</g>
<mask id="mask3_171:1143" style="mask-type:alpha" maskUnits="userSpaceOnUse" x="41" y="25" width="3" height="4">
<path d="M41.0034 25.4291H43.3771V28.0096H41.0034V25.4291Z" fill="white"/>
</mask>
<g mask="url(#mask3_171:1143)">
</g>
</g>
<defs>
<clipPath id="clip0_171:1143">
<rect width="44" height="28.05" fill="white" transform="translate(0.5 0.5)"/>
</clipPath>
</defs>
</svg>
