<svg width="1698" height="512" viewBox="0 0 1698 512" fill="none" xmlns="http://www.w3.org/2000/svg">
<circle cx="256" cy="256" r="256" fill="white"/>
<path d="M253.293 266.045C222.096 257.077 199.362 246.089 185.09 233.08C170.944 219.945 163.871 203.778 163.871 184.58C163.871 162.856 172.523 144.921 189.826 130.775C207.256 116.503 229.864 109.367 257.65 109.367C276.596 109.367 293.457 113.03 308.234 120.355C323.138 127.681 334.632 137.785 342.715 150.668C350.924 163.551 355.029 177.633 355.029 192.916H318.465C318.465 176.244 313.16 163.172 302.551 153.699C291.941 144.1 276.975 139.301 257.65 139.301C239.715 139.301 225.696 143.279 215.592 151.236C205.614 159.067 200.625 169.992 200.625 184.012C200.625 195.253 205.361 204.788 214.834 212.619C224.433 220.324 240.663 227.396 263.523 233.838C286.51 240.279 304.445 247.415 317.328 255.246C330.337 262.951 339.936 271.981 346.125 282.338C352.44 292.695 355.598 304.883 355.598 318.902C355.598 341.258 346.883 359.193 329.453 372.707C312.023 386.095 288.721 392.789 259.545 392.789C240.6 392.789 222.917 389.189 206.498 381.99C190.079 374.665 177.385 364.687 168.418 352.057C159.577 339.426 155.156 325.091 155.156 309.051H191.721C191.721 325.723 197.846 338.921 210.098 348.646C222.475 358.245 238.958 363.045 259.545 363.045C278.743 363.045 293.457 359.13 303.688 351.299C313.918 343.468 319.033 332.796 319.033 319.281C319.033 305.767 314.297 295.347 304.824 288.021C295.352 280.57 278.174 273.244 253.293 266.045Z" fill="black"/>
<path d="M369.742 254.652L406.094 239.957H410.992V267.543C417.094 257.145 423.195 249.883 429.297 245.758C435.484 241.547 441.973 239.441 448.762 239.441C460.621 239.441 470.504 244.082 478.41 253.363C488.121 264.707 492.977 279.488 492.977 297.707C492.977 318.074 487.133 334.918 475.445 348.238C465.82 359.152 453.703 364.609 439.094 364.609C432.734 364.609 427.234 363.707 422.594 361.902C419.156 360.613 415.289 358.035 410.992 354.168V390.133C410.992 398.211 411.465 403.324 412.41 405.473C413.441 407.707 415.16 409.469 417.566 410.758C420.059 412.047 424.527 412.691 430.973 412.691V417.461H369.098V412.691H372.32C377.047 412.777 381.086 411.875 384.438 409.984C386.07 409.039 387.316 407.492 388.176 405.344C389.121 403.281 389.594 397.953 389.594 389.359V277.727C389.594 270.078 389.25 265.223 388.562 263.16C387.875 261.098 386.758 259.551 385.211 258.52C383.75 257.488 381.73 256.973 379.152 256.973C377.09 256.973 374.469 257.574 371.289 258.777L369.742 254.652ZM410.992 275.148V319.234C410.992 328.773 411.379 335.047 412.152 338.055C413.355 343.039 416.277 347.422 420.918 351.203C425.645 354.984 431.574 356.875 438.707 356.875C447.301 356.875 454.262 353.523 459.59 346.82C466.551 338.055 470.031 325.723 470.031 309.824C470.031 291.777 466.078 277.898 458.172 268.188C452.672 261.484 446.141 258.133 438.578 258.133C434.453 258.133 430.371 259.164 426.332 261.227C423.238 262.773 418.125 267.414 410.992 275.148Z" fill="black"/>
<path d="M596.102 287.395C596.016 304.926 600.27 318.676 608.863 328.645C617.457 338.613 627.555 343.598 639.156 343.598C646.891 343.598 653.594 341.492 659.266 337.281C665.023 332.984 669.836 325.68 673.703 315.367L677.699 317.945C675.895 329.719 670.652 340.461 661.973 350.172C653.293 359.797 642.422 364.609 629.359 364.609C615.18 364.609 603.02 359.109 592.879 348.109C582.824 337.023 577.797 322.156 577.797 303.508C577.797 283.312 582.953 267.586 593.266 256.328C603.664 244.984 616.684 239.312 632.324 239.312C645.559 239.312 656.43 243.695 664.938 252.461C673.445 261.141 677.699 272.785 677.699 287.395H596.102ZM596.102 279.918H650.758C650.328 272.355 649.426 267.027 648.051 263.934C645.902 259.121 642.68 255.34 638.383 252.59C634.172 249.84 629.746 248.465 625.105 248.465C617.973 248.465 611.57 251.258 605.898 256.844C600.312 262.344 597.047 270.035 596.102 279.918ZM859.844 316.141C856.664 331.695 850.434 343.684 841.152 352.105C831.871 360.441 821.602 364.609 810.344 364.609C796.938 364.609 785.25 358.98 775.281 347.723C765.312 336.465 760.328 321.254 760.328 302.09C760.328 283.527 765.828 268.445 776.828 256.844C787.914 245.242 801.191 239.441 816.66 239.441C828.262 239.441 837.801 242.535 845.277 248.723C852.754 254.824 856.492 261.184 856.492 267.801C856.492 271.066 855.418 273.73 853.27 275.793C851.207 277.77 848.285 278.758 844.504 278.758C839.434 278.758 835.609 277.125 833.031 273.859C831.57 272.055 830.582 268.617 830.066 263.547C829.637 258.477 827.918 254.609 824.91 251.945C821.902 249.367 817.734 248.078 812.406 248.078C803.812 248.078 796.895 251.258 791.652 257.617C784.691 266.039 781.211 277.168 781.211 291.004C781.211 305.098 784.648 317.559 791.523 328.387C798.484 339.129 807.852 344.5 819.625 344.5C828.047 344.5 835.609 341.621 842.312 335.863C847.039 331.91 851.637 324.734 856.105 314.336L859.844 316.141ZM977.148 204.121V242.922H1004.73V251.945H977.148V328.516C977.148 336.164 978.223 341.32 980.371 343.984C982.605 346.648 985.441 347.98 988.879 347.98C991.715 347.98 994.465 347.121 997.129 345.402C999.793 343.598 1001.86 340.977 1003.32 337.539H1008.34C1005.34 345.961 1001.08 352.32 995.582 356.617C990.082 360.828 984.41 362.934 978.566 362.934C974.613 362.934 970.746 361.859 966.965 359.711C963.184 357.477 960.391 354.34 958.586 350.301C956.781 346.176 955.879 339.859 955.879 331.352V251.945H937.188V247.691C941.914 245.801 946.727 242.621 951.625 238.152C956.609 233.598 961.035 228.227 964.902 222.039C966.879 218.773 969.629 212.801 973.152 204.121H977.148ZM1149.24 343.984C1137.12 353.352 1129.52 358.766 1126.42 360.227C1121.78 362.375 1116.84 363.449 1111.6 363.449C1103.43 363.449 1096.69 360.656 1091.36 355.07C1086.12 349.484 1083.5 342.137 1083.5 333.027C1083.5 327.27 1084.79 322.285 1087.36 318.074C1090.89 312.23 1096.99 306.73 1105.67 301.574C1114.43 296.418 1128.96 290.145 1149.24 282.754V278.113C1149.24 266.34 1147.35 258.262 1143.57 253.879C1139.87 249.496 1134.46 247.305 1127.32 247.305C1121.91 247.305 1117.61 248.766 1114.43 251.688C1111.17 254.609 1109.54 257.961 1109.54 261.742L1109.79 269.219C1109.79 273.172 1108.76 276.223 1106.7 278.371C1104.72 280.52 1102.1 281.594 1098.84 281.594C1095.66 281.594 1093.04 280.477 1090.97 278.242C1089 276.008 1088.01 272.957 1088.01 269.09C1088.01 261.699 1091.79 254.91 1099.35 248.723C1106.91 242.535 1117.53 239.441 1131.19 239.441C1141.68 239.441 1150.27 241.203 1156.97 244.727C1162.04 247.391 1165.78 251.559 1168.19 257.23C1169.73 260.926 1170.51 268.488 1170.51 279.918V320.008C1170.51 331.266 1170.72 338.184 1171.15 340.762C1171.58 343.254 1172.27 344.93 1173.21 345.789C1174.25 346.648 1175.41 347.078 1176.7 347.078C1178.07 347.078 1179.27 346.777 1180.3 346.176C1182.11 345.059 1185.59 341.922 1190.75 336.766V343.984C1181.12 356.875 1171.93 363.32 1163.16 363.32C1158.95 363.32 1155.6 361.859 1153.11 358.938C1150.61 356.016 1149.32 351.031 1149.24 343.984ZM1149.24 335.605V290.617C1136.26 295.773 1127.88 299.426 1124.1 301.574C1117.31 305.355 1112.46 309.309 1109.54 313.434C1106.61 317.559 1105.15 322.07 1105.15 326.969C1105.15 333.156 1107 338.312 1110.7 342.438C1114.39 346.477 1118.64 348.496 1123.46 348.496C1129.99 348.496 1138.58 344.199 1149.24 335.605ZM1365.93 316.141C1362.75 331.695 1356.52 343.684 1347.24 352.105C1337.96 360.441 1327.69 364.609 1316.43 364.609C1303.02 364.609 1291.34 358.98 1281.37 347.723C1271.4 336.465 1266.41 321.254 1266.41 302.09C1266.41 283.527 1271.91 268.445 1282.91 256.844C1294 245.242 1307.28 239.441 1322.75 239.441C1334.35 239.441 1343.89 242.535 1351.36 248.723C1358.84 254.824 1362.58 261.184 1362.58 267.801C1362.58 271.066 1361.5 273.73 1359.36 275.793C1357.29 277.77 1354.37 278.758 1350.59 278.758C1345.52 278.758 1341.7 277.125 1339.12 273.859C1337.66 272.055 1336.67 268.617 1336.15 263.547C1335.72 258.477 1334 254.609 1331 251.945C1327.99 249.367 1323.82 248.078 1318.49 248.078C1309.9 248.078 1302.98 251.258 1297.74 257.617C1290.78 266.039 1287.3 277.168 1287.3 291.004C1287.3 305.098 1290.73 317.559 1297.61 328.387C1304.57 339.129 1313.94 344.5 1325.71 344.5C1334.13 344.5 1341.7 341.621 1348.4 335.863C1353.12 331.91 1357.72 324.734 1362.19 314.336L1365.93 316.141ZM1489.55 177.695V334.316C1489.55 341.707 1490.07 346.605 1491.1 349.012C1492.21 351.418 1493.89 353.266 1496.12 354.555C1498.36 355.758 1502.53 356.359 1508.63 356.359V361H1450.75V356.359C1456.16 356.359 1459.86 355.801 1461.84 354.684C1463.81 353.566 1465.36 351.719 1466.48 349.141C1467.59 346.562 1468.15 341.621 1468.15 334.316V227.066C1468.15 213.746 1467.85 205.582 1467.25 202.574C1466.65 199.48 1465.66 197.375 1464.29 196.258C1463 195.141 1461.32 194.582 1459.26 194.582C1457.02 194.582 1454.19 195.27 1450.75 196.645L1448.56 192.133L1483.75 177.695H1489.55ZM1608.27 287.395C1608.19 304.926 1612.44 318.676 1621.04 328.645C1629.63 338.613 1639.73 343.598 1651.33 343.598C1659.06 343.598 1665.77 341.492 1671.44 337.281C1677.2 332.984 1682.01 325.68 1685.88 315.367L1689.87 317.945C1688.07 329.719 1682.82 340.461 1674.14 350.172C1665.46 359.797 1654.59 364.609 1641.53 364.609C1627.35 364.609 1615.19 359.109 1605.05 348.109C1595 337.023 1589.97 322.156 1589.97 303.508C1589.97 283.312 1595.12 267.586 1605.44 256.328C1615.84 244.984 1628.86 239.312 1644.5 239.312C1657.73 239.312 1668.6 243.695 1677.11 252.461C1685.62 261.141 1689.87 272.785 1689.87 287.395H1608.27ZM1608.27 279.918H1662.93C1662.5 272.355 1661.6 267.027 1660.22 263.934C1658.07 259.121 1654.85 255.34 1650.55 252.59C1646.34 249.84 1641.92 248.465 1637.28 248.465C1630.14 248.465 1623.74 251.258 1618.07 256.844C1612.48 262.344 1609.22 270.035 1608.27 279.918Z" fill="white"/>
</svg>
